<?xml version="1.0" encoding="UTF-8" standalone="no"?>
<svg
   xmlns:dc="http://purl.org/dc/elements/1.1/"
   xmlns:cc="http://creativecommons.org/ns#"
   xmlns:rdf="http://www.w3.org/1999/02/22-rdf-syntax-ns#"
   xmlns:svg="http://www.w3.org/2000/svg"
   xmlns="http://www.w3.org/2000/svg"
   id="svg5892"
   version="1.1"
   viewBox="0 0 68.533287 68.554985"
   height="68.554985mm"
   width="68.533287mm">
  <defs
     id="defs5886" />
  <metadata
     id="metadata5889">
    <rdf:RDF>
      <cc:Work
         rdf:about="">
        <dc:format>image/svg+xml</dc:format>
        <dc:type
           rdf:resource="http://purl.org/dc/dcmitype/StillImage" />
        <dc:title></dc:title>
      </cc:Work>
    </rdf:RDF>
  </metadata>
  <g
     transform="translate(45.60593,-192.41894)"
     id="layer1">
    <path
       id="path4928"
       d="m -11.42197,192.41894 -1.19321,7.2564 c -1.637051,0.0727 -3.264051,0.29335 -4.8612,0.65991 l -3.0856,-6.67453 c -1.10535,0.30558 -2.19464,0.66598 -3.26389,1.08056 l 1.50792,7.19749 c -1.50024,0.65918 -2.93744,1.45318 -4.29431,2.37195 l -5.28856,-5.10977 c -0.92032,0.68424 -1.80578,1.41411 -2.65307,2.18695 l 4.00647,6.16655 c -1.16081,1.15662 -2.21426,2.41568 -3.14761,3.76256 l -6.77685,-2.85409 c -0.611,0.97049 -1.17324,1.97102 -1.68413,2.99775 l 5.96346,4.30258 c -0.6646,1.49784 -1.19184,3.05313 -1.57562,4.64623 l -7.350451,-0.21342 c -0.21916,1.12567 -0.381817,2.26197 -0.487309,3.40392 l 7.11481,1.85777 c -0.0786,1.63678 -0.008,3.27735 0.20929,4.90151 l -6.931358,2.45618 c 0.202279,1.12883 0.460996,2.24672 0.775147,3.34966 l 7.305491,-0.83767 c 0.51794,1.55466 1.17613,3.05895 1.96578,4.49481 l -5.57589,4.79454 c 0.5964,0.97953 1.24133,1.92878 1.9327,2.84376 l 6.50968,-3.42047 c 1.04458,1.26258 2.20162,2.4278 3.45663,3.48145 l -3.46697,6.48487 c 0.90998,0.69794 1.85408,1.34941 2.82929,1.95285 l 4.83433,-5.54074 c 1.43013,0.79996 2.92998,1.46868 4.48086,1.99781 l -0.89038,7.29929 c 1.10065,0.32209 2.216639,0.58903 3.343981,0.79944 l 2.5063,-6.91328 c 1.622549,0.22933 3.262659,0.31077 4.899959,0.24392 l 1.806609,7.12824 c 1.14268,-0.0973 2.279812,-0.25145 3.407032,-0.4625 l -0.1602,-7.35201 c 1.595811,-0.37229 3.15449,-0.88822 4.65707998,-1.54202 L 3.66341,257.61134 c 1.030381,-0.50348 2.035281,-1.05792 3.01016,-1.66191 l -2.80552,-6.79752 c 1.353571,-0.92363 2.62087,-1.9683 3.785819,-3.12074 l 6.137093,4.05091 c 0.778917,-0.8417 1.515218,-1.72167 2.206069,-2.63705 l -5.07153,-5.32525 c 0.92851,-1.35023 1.732989,-2.78181 2.402959,-4.27726 l 7.18612,1.56011 c 0.42227,-1.06624 0.790811,-2.15301 1.104331,-3.25613 l -6.65231,-3.13366 c 0.37805,-1.59446 0.61055,-3.21955 0.69505,-4.85603 l 7.26467,-1.14154 c 0.009,-1.14678 -0.0406,-2.29304 -0.146759,-3.43493 l -7.334952,-0.51883 c -0.223459,-1.62336 -0.593518,-3.22305 -1.105879,-4.77955 l 6.36137,-3.68815 c -0.40626,-1.07244 -0.865709,-2.12376 -1.37718,-3.15019 l -7.027471,2.16576 c -0.79479,-1.43302 -1.71794,-2.79081 -2.75798,-4.05712 l 4.59972,-5.73764 c -0.766238,-0.85326 -1.574868,-1.66728 -2.422588,-2.43964 L 5.94441,205.93336 C 4.68562,204.88422 3.3347,203.95103 1.90745,203.14593 l 2.216402,-7.01146 C 3.101121,195.61563 2.05296,195.14853 0.98346998,194.73456 l -3.73413898,6.33501 c -1.552771,-0.52356 -3.149571,-0.90535 -4.771282,-1.1405 L -7.98807,192.5905 c -1.141089,-0.11436 -2.28709,-0.17189 -3.4339,-0.17156 z m 0.0775,16.90956 a 17.372518,17.372518 0 0 1 17.372582,17.37258 17.372518,17.372518 0 0 1 -17.37259,17.37258 17.372518,17.372518 0 0 1 -17.372581,-17.37258 17.372518,17.372518 0 0 1 17.372581,-17.37258 z"
       style="fill:#fac04b;fill-opacity:1;stroke:none;stroke-width:0.26458332px;stroke-linecap:butt;stroke-linejoin:miter;stroke-opacity:1" />
  </g>
</svg>
