<?xml version="1.0" encoding="UTF-8" standalone="no"?>
<svg
   xmlns:dc="http://purl.org/dc/elements/1.1/"
   xmlns:cc="http://creativecommons.org/ns#"
   xmlns:rdf="http://www.w3.org/1999/02/22-rdf-syntax-ns#"
   xmlns:svg="http://www.w3.org/2000/svg"
   xmlns="http://www.w3.org/2000/svg"
   id="svg5724"
   version="1.1"
   viewBox="0 0 48.381039 70.114395"
   height="70.114395mm"
   width="48.381039mm">
  <defs
     id="defs5718" />
  <metadata
     id="metadata5721">
    <rdf:RDF>
      <cc:Work
         rdf:about="">
        <dc:format>image/svg+xml</dc:format>
        <dc:type
           rdf:resource="http://purl.org/dc/dcmitype/StillImage" />
        <dc:title></dc:title>
      </cc:Work>
    </rdf:RDF>
  </metadata>
  <g
     transform="translate(228.29766,-63.883278)"
     id="layer1">
    <g
       transform="translate(-450.45309,95.817058)"
       id="g4683">
      <path
         style="fill:#a2a2a2;fill-opacity:1;stroke:none;stroke-width:0.26221043"
         d="m 270.53647,-24.279762 c 0,4.227197 -10.83045,7.654018 -24.19048,7.654017 -13.36003,-1e-6 -24.19047,-3.426821 -24.19047,-7.654017 0,-4.227196 10.83044,-7.654017 24.19047,-7.654018 13.36003,-1e-6 24.19048,3.42682 24.19048,7.654018 z"
         id="path4529-1" />
      <path
         style="fill:#a2a2a2;fill-opacity:1;stroke:none;stroke-width:0.99103153"
         d="m 839.64258,36.330078 v 79.046872 c 0.001,15.97662 40.93567,28.92794 91.42969,28.92774 50.49325,-1.5e-4 91.42633,-12.95136 91.42773,-28.92774 V 36.330078 c 0,15.976811 -40.93313,28.927738 -91.42773,28.927734 -50.49461,-3e-6 -91.42969,-12.950927 -91.42969,-28.927734 z"
         transform="scale(0.26458333)"
         id="path4529-3-7" />
      <path
         style="fill:#a2a2a2;fill-opacity:1;stroke:none;stroke-width:0.99103153"
         d="m 839.64258,-89.765625 v 59.046875 c 0,15.976805 40.93508,28.9296829 91.42969,28.9296875 50.4946,2e-6 91.42773,-12.9528785 91.42773,-28.9296875 v -59.046875 c 0,15.976808 -40.93313,28.927738 -91.42773,28.927734 -50.49461,-3e-6 -91.42969,-12.95093 -91.42969,-28.927734 z"
         id="path4529-6-0-6"
         transform="scale(0.26458333)" />
      <path
         style="fill:#a2a2a2;fill-opacity:1;stroke:none;stroke-width:0.26221043"
         d="m 222.15543,-7.5985028 v 16.68167 c 2.6e-4,4.2270838 10.83058,7.6537558 24.19025,7.6537958 13.35987,5e-5 24.19038,-3.426648 24.19077,-7.6537958 v -16.68167 c 0,4.227198 -10.83074,7.65431405 -24.19077,7.65431405 -13.36003,0 -24.19025,-3.42711605 -24.19025,-7.65431405 z"
         id="path4529-8-3" />
    </g>
    <g
       id="g5748"
       transform="translate(-450.45309,95.817058)">
      <path
         id="path5740"
         d="m 270.53647,-24.279762 c 0,4.227197 -10.83045,7.654018 -24.19048,7.654017 -13.36003,-1e-6 -24.19047,-3.426821 -24.19047,-7.654017 0,-4.227196 10.83044,-7.654017 24.19047,-7.654018 13.36003,-1e-6 24.19048,3.42682 24.19048,7.654018 z"
         style="fill:#a2a2a2;fill-opacity:1;stroke:none;stroke-width:0.26221043" />
      <path
         id="path5742"
         transform="scale(0.26458333)"
         d="m 839.64258,36.330078 v 79.046872 c 0.001,15.97662 40.93567,28.92794 91.42969,28.92774 50.49325,-1.5e-4 91.42633,-12.95136 91.42773,-28.92774 V 36.330078 c 0,15.976811 -40.93313,28.927738 -91.42773,28.927734 -50.49461,-3e-6 -91.42969,-12.950927 -91.42969,-28.927734 z"
         style="fill:#a2a2a2;fill-opacity:1;stroke:none;stroke-width:0.99103153" />
      <path
         transform="scale(0.26458333)"
         id="path5744"
         d="m 839.64258,-89.765625 v 59.046875 c 0,15.976805 40.93508,28.9296829 91.42969,28.9296875 50.4946,2e-6 91.42773,-12.9528785 91.42773,-28.9296875 v -59.046875 c 0,15.976808 -40.93313,28.927738 -91.42773,28.927734 -50.49461,-3e-6 -91.42969,-12.95093 -91.42969,-28.927734 z"
         style="fill:#a2a2a2;fill-opacity:1;stroke:none;stroke-width:0.99103153" />
      <path
         id="path5746"
         d="m 222.15543,-7.5985028 v 16.68167 c 2.6e-4,4.2270838 10.83058,7.6537558 24.19025,7.6537958 13.35987,5e-5 24.19038,-3.426648 24.19077,-7.6537958 v -16.68167 c 0,4.227198 -10.83074,7.65431405 -24.19077,7.65431405 -13.36003,0 -24.19025,-3.42711605 -24.19025,-7.65431405 z"
         style="fill:#a2a2a2;fill-opacity:1;stroke:none;stroke-width:0.26221043" />
    </g>
  </g>
</svg>
