<?xml version="1.0" encoding="UTF-8" standalone="no"?>
<svg
   xmlns:dc="http://purl.org/dc/elements/1.1/"
   xmlns:cc="http://creativecommons.org/ns#"
   xmlns:rdf="http://www.w3.org/1999/02/22-rdf-syntax-ns#"
   xmlns:svg="http://www.w3.org/2000/svg"
   xmlns="http://www.w3.org/2000/svg"
   id="svg6082"
   version="1.1"
   viewBox="0 0 49.194836 64.462791"
   height="64.462791mm"
   width="49.194836mm">
  <defs
     id="defs6076" />
  <metadata
     id="metadata6079">
    <rdf:RDF>
      <cc:Work
         rdf:about="">
        <dc:format>image/svg+xml</dc:format>
        <dc:type
           rdf:resource="http://purl.org/dc/dcmitype/StillImage" />
        <dc:title></dc:title>
      </cc:Work>
    </rdf:RDF>
  </metadata>
  <g
     transform="translate(119.84742,-146.84003)"
     id="layer1">
    <g
       transform="rotate(27.894076,-888.95865,-949.62955)"
       id="g5319">
      <path
         style="fill:#ee9103;fill-opacity:1;stroke:none;stroke-width:0.99999994px;stroke-linecap:butt;stroke-linejoin:miter;stroke-opacity:1"
         d="m 1278.0957,-1340.3027 c -69.5114,0.064 -78.532,42.4639 -77.3809,81.0371 l 63.8965,87.5332 a 50.535711,50.535711 0 0 1 13.4239,-1.8184 50.535711,50.535711 0 0 1 13.496,1.8887 l 63.9454,-87.6035 c 1.1511,-38.5732 -7.8695,-80.9733 -77.3809,-81.0371 z m -56.8223,85.4277 20.709,0.2539 28.0313,76.0137 z m 113.6446,0 -48.7403,76.2676 28.0313,-76.0137 z m -78.0352,0.5059 h 21.2129 21.2129 l -21.2129,76.2656 z"
         transform="scale(0.26458333)"
         id="path5239" />
      <circle
         style="fill:#fabf61;fill-opacity:1;stroke:none;stroke-width:0.26499999;stroke-linecap:round;stroke-linejoin:round;stroke-miterlimit:4;stroke-dasharray:none;stroke-opacity:1"
         id="path5299-8"
         cx="338.14694"
         cy="-297.13129"
         r="10.15811" />
    </g>
  </g>
</svg>
