<?xml version="1.0" encoding="UTF-8" standalone="no"?>
<svg
   xmlns:dc="http://purl.org/dc/elements/1.1/"
   xmlns:cc="http://creativecommons.org/ns#"
   xmlns:rdf="http://www.w3.org/1999/02/22-rdf-syntax-ns#"
   xmlns:svg="http://www.w3.org/2000/svg"
   xmlns="http://www.w3.org/2000/svg"
   id="svg6506"
   version="1.1"
   viewBox="0 0 68.822159 36.148159"
   height="36.148159mm"
   width="68.822159mm">
  <defs
     id="defs6500" />
  <metadata
     id="metadata6503">
    <rdf:RDF>
      <cc:Work
         rdf:about="">
        <dc:format>image/svg+xml</dc:format>
        <dc:type
           rdf:resource="http://purl.org/dc/dcmitype/StillImage" />
        <dc:title></dc:title>
      </cc:Work>
    </rdf:RDF>
  </metadata>
  <g
     transform="translate(-4.1424929,-49.87235)"
     id="layer1">
    <path
       id="path5430"
       d="m 19.64387,49.87235 -1.60351,5.07773 -1.670191,0.0672 -1.73736,3.34089 3.407551,-0.0672 -1.736851,1.73736 -1.6707,3.74189 -10.4903161,-1.93787 0.133842,12.16102 1.60352,1.53685 1.737363,-0.0672 1.8706859,3.675221 c 0,0 -0.4677719,3.407547 -0.2005038,3.407547 0.2672691,0 4.075719,3.47472 4.075719,3.47472 l 33.809821,-0.0672 3.40755,-1.870684 h 1.8712 l 5.144899,-3.274224 6.81509,-0.133318 4.944412,-5.078241 3.608559,-8.68629 -0.0672,-1.4702 -32.54013,1.26969 5.345409,-3.20704 6.147429,-0.13384 0.0667,-3.07372 -11.5595,-0.13332 -3.674711,-6.88227 -6.54792,0.0667 -3.47473,10.22315 -3.60805,0.0667 -1.80402,-3.60805 1.736849,-1.53686 -2.071199,-3.74189 -1.26969,0.0672 1.536859,-4.9444 z m -1.67018,27.46189 h 1.67018 l 1.804549,6.882265 h -5.14491 z m 6.74843,0.0667 h 5.41259 l -2.00453,6.681761 -3.20756,0.133843 z m 10.42365,0 1.536859,6.748423 -4.877739,0.06718 -0.13384,-6.615094 z m 13.897859,0.0667 1.470191,5.078246 -3.207041,1.73736 -1.937858,-6.681756 z m -7.082258,0.0672 1.870688,6.681766 -3.274218,-0.06718 -2.004531,-6.547914 z"
       style="fill:#9aa55d;fill-opacity:1;stroke:none;stroke-width:0.26458332px;stroke-linecap:butt;stroke-linejoin:miter;stroke-opacity:1" />
  </g>
</svg>
