<?xml version="1.0" encoding="UTF-8" standalone="no"?>
<svg
   xmlns:dc="http://purl.org/dc/elements/1.1/"
   xmlns:cc="http://creativecommons.org/ns#"
   xmlns:rdf="http://www.w3.org/1999/02/22-rdf-syntax-ns#"
   xmlns:svg="http://www.w3.org/2000/svg"
   xmlns="http://www.w3.org/2000/svg"
   id="svg4633"
   version="1.1"
   viewBox="0 0 68.697121 35.246284"
   height="35.246284mm"
   width="68.697121mm">
  <defs
     id="defs4627" />
  <metadata
     id="metadata4630">
    <rdf:RDF>
      <cc:Work
         rdf:about="">
        <dc:format>image/svg+xml</dc:format>
        <dc:type
           rdf:resource="http://purl.org/dc/dcmitype/StillImage" />
        <dc:title></dc:title>
      </cc:Work>
    </rdf:RDF>
  </metadata>
  <g
     transform="translate(31.324751,-81.317336)"
     id="layer1">
    <path
       id="path4763"
       d="m 26.36383,81.317386 -5.24442,6.99256 -1.18118,2.69308 -6.37835,0.0472 -9.543902,-3.07105 -3.21279798,-1.88989 -3.26004002,-0.0945 -3.307291,3.54353 -7.98475,-1.93713 -1.6064,1.88988 -3.1183,-0.23623 -1.55915,-4.67746 h -1.65365 v 3.16555 l -4.77195,-1.65364 -1.5119,0.0945 1.37016,2.92931 4.67745,1.7009 0.18899,1.88988 -1.5119,4.7247 -1.65365,1.6064 -3.16555,1.370164 0.0473,1.6064 4.58296,1.79539 4.86644,-1.7009 -0.0945,-1.55915 -3.07106,-1.653644 1.51191,-6.28386 1.74814,1.46466 v 3.63802 l 3.35454,6.142124 -0.0945,-4.913704 4.72471,1.606404 -0.0945,-1.795384 3.44903,0.14174 -3.49628,8.173734 -18.89881,1.37017 -1.79538,1.60639 7.89025,4.91368 9.87463,1.55917 12.66220102,-1.55917 17.67039098,-6.2366 -0.14174,-1.74813 -19.135051,-0.18899 -3.071051,1.88988 -0.23624,-3.49628 6.61458102,-6.331104 14.03236998,3.307294 5.008189,-0.0945 0.0472,3.59078 -1.559153,6.18935 -4.913688,1.46467 0.188989,1.65363 2.929311,1.60641 h 4.724711 l 3.449029,-3.21279 H 21.35564 l -1.606402,-1.65366 1.748142,-3.0238 -0.0945,-5.00819 h 6.66183 l 6.094859,1.84264 3.212801,-0.0473 -3.118299,-3.49628 -3.59078,0.0473 -15.73326,-3.023814 6.567339,-3.26005 9.5439,-0.0945 4.819192,1.7009 -1.700893,-3.3073 -4.819189,0.0945 -3.02381,-1.65364 1.37016,-11.1503 z"
       style="fill:#8bc595;fill-opacity:1;stroke:none;stroke-width:0.26458332px;stroke-linecap:butt;stroke-linejoin:miter;stroke-opacity:1" />
  </g>
</svg>
