<?xml version="1.0" encoding="UTF-8" standalone="no"?>
<svg
   xmlns:dc="http://purl.org/dc/elements/1.1/"
   xmlns:cc="http://creativecommons.org/ns#"
   xmlns:rdf="http://www.w3.org/1999/02/22-rdf-syntax-ns#"
   xmlns:svg="http://www.w3.org/2000/svg"
   xmlns="http://www.w3.org/2000/svg"
   id="svg5219"
   version="1.1"
   viewBox="0 0 71 71.000001"
   height="71mm"
   width="71mm">
  <defs
     id="defs5213" />
  <metadata
     id="metadata5216">
    <rdf:RDF>
      <cc:Work
         rdf:about="">
        <dc:format>image/svg+xml</dc:format>
        <dc:type
           rdf:resource="http://purl.org/dc/dcmitype/StillImage" />
        <dc:title></dc:title>
      </cc:Work>
    </rdf:RDF>
  </metadata>
  <g
     transform="translate(-78.99112,-147.26457)"
     id="layer1">
    <g
       id="g4656"
       transform="translate(-374.88668,-550.25187)">
      <path
         style="fill:#39b74e;fill-opacity:1;stroke:none;stroke-width:0.26458332px;stroke-linecap:butt;stroke-linejoin:miter;stroke-opacity:1"
         d="m 455.16505,717.16333 -0.94494,3.96875 8.59896,5.66964 v 5.19717 l -2.07887,0.37798 -4.25223,-6.3311 -2.07887,1.13393 3.40179,5.00818 -1.03944,5.48066 3.68527,1.88988 3.2128,8.59896 2.55134,-1.41741 -3.02381,-6.4256 6.2366,0.0945 3.77977,-4.15774 10.67782,8.78795 14.45759,-4.7247 6.61459,-12.00075 4.6302,-5.57515 4.44122,1.03944 2.64584,2.74033 6.2366,-1.51191 -8.12648,-6.42559 2.74032,-9.35491 -5.19717,-1.79539 -3.49628,9.5439 -6.89806,-2.92932 -3.49628,0.66146 v 4.8192 l -13.60715,1.98437 -9.35491,4.34673 -11.43378,-7.84301 z"
         id="path4768-5-5" />
      <rect
         style="fill:#827db0;fill-opacity:1;stroke:#000000;stroke-width:0.565;stroke-linecap:round;stroke-linejoin:round;stroke-miterlimit:4;stroke-dasharray:none;stroke-opacity:1"
         id="rect4652"
         width="47.436012"
         height="27.214285"
         x="476.81699"
         y="731.10565"
         ry="8.6934528" />
    </g>
  </g>
</svg>
