<?xml version="1.0" encoding="UTF-8" standalone="no"?>
<svg
   xmlns:dc="http://purl.org/dc/elements/1.1/"
   xmlns:cc="http://creativecommons.org/ns#"
   xmlns:rdf="http://www.w3.org/1999/02/22-rdf-syntax-ns#"
   xmlns:svg="http://www.w3.org/2000/svg"
   xmlns="http://www.w3.org/2000/svg"
   id="svg7505"
   version="1.1"
   viewBox="0 0 69.07515 57.816944"
   height="57.816944mm"
   width="69.07515mm">
  <defs
     id="defs7499" />
  <metadata
     id="metadata7502">
    <rdf:RDF>
      <cc:Work
         rdf:about="">
        <dc:format>image/svg+xml</dc:format>
        <dc:type
           rdf:resource="http://purl.org/dc/dcmitype/StillImage" />
        <dc:title></dc:title>
      </cc:Work>
    </rdf:RDF>
  </metadata>
  <g
     transform="translate(104.84115,-107.82962)"
     id="layer1">
    <g
       transform="translate(-293.64026,56.136175)"
       id="g4804">
      <path
         style="fill:#39b74e;fill-opacity:1;stroke:none;stroke-width:0.26458332px;stroke-linecap:butt;stroke-linejoin:miter;stroke-opacity:1"
         d="m 209.96577,67.095978 -19.18229,-5.953125 v 3.874256 l 9.5439,5.57515 -5.19717,0.283479 3.1183,1.700896 -5.48065,3.968749 -3.96875,7.654018 2.36235,2.173361 9.35491,1.417413 17.57589,-7.276042 30.33259,4.819195 7.37054,2.645834 h 1.98437 l -0.18899,-3.779761 -13.51265,-5.10268 -8.59895,-5.102678 14.36309,-5.008184 3.11831,0.09449 4.91369,1.889881 v -2.17336 l -7.9375,-3.779761 -1.79539,-5.575149 v -7.748513 h -1.88988 l -5.57515,11.528274 -9.73289,-2.078868 0.0945,3.874256 -3.87426,2.267858 -3.77976,-0.283483 -3.77976,-5.480655 -1.79539,-0.188987 -0.18899,5.669642 h -1.70089 l -0.18899,-3.779763 z"
         id="path4776" />
      <path
         d="M 252.4842,98.576731 234.11155,109.18419 215.7389,98.576731 v -21.21491 l 18.37265,-10.60746 18.37265,10.60746 z"
         id="path4774-1-3"
         style="fill:#39b74e;fill-opacity:1;stroke:#000000;stroke-width:0.565;stroke-miterlimit:4;stroke-dasharray:none;stroke-opacity:1" />
    </g>
  </g>
</svg>
