<?xml version="1.0" encoding="UTF-8" standalone="no"?>
<svg
   xmlns:dc="http://purl.org/dc/elements/1.1/"
   xmlns:cc="http://creativecommons.org/ns#"
   xmlns:rdf="http://www.w3.org/1999/02/22-rdf-syntax-ns#"
   xmlns:svg="http://www.w3.org/2000/svg"
   xmlns="http://www.w3.org/2000/svg"
   id="svg9221"
   version="1.1"
   viewBox="0 0 64.259682 57.90538"
   height="57.90538mm"
   width="64.259682mm">
  <defs
     id="defs9215" />
  <metadata
     id="metadata9218">
    <rdf:RDF>
      <cc:Work
         rdf:about="">
        <dc:format>image/svg+xml</dc:format>
        <dc:type
           rdf:resource="http://purl.org/dc/dcmitype/StillImage" />
        <dc:title></dc:title>
      </cc:Work>
    </rdf:RDF>
  </metadata>
  <g
     transform="translate(201.46317,-51.088976)"
     id="layer1">
    <g
       transform="translate(-528.7347,83.765943)"
       id="g4939">
      <path
         style="fill:#39b74e;fill-opacity:1;stroke:none;stroke-width:0.26458332px;stroke-linecap:butt;stroke-linejoin:miter;stroke-opacity:1"
         d="m 343.90906,-32.543332 -2.93997,-0.133635 1.67045,8.886712 -3.00678,1.670435 -4.14269,-0.133635 0.73499,-4.343131 -2.60588,4.209496 -1.46997,1.603617 -4.87768,-2.939965 3.07362,4.6104 0.20044,1.336347 -1.60361,4.34313 3.00678,-2.80633 1.60361,3.140417 3.00678,1.469983 8.81989,3.073599 1.73725,3.0735997 -4.54358,1.4031648 4.47677,0.066818 6.01356,12.0271287 4.47677,0.7349911 23.31927,-19.1097713 0.80182,-3.340869 -3.67496,2.405425 -8.28537,-2.338608 -1.53678,-2.605878 -1.60364,-0.06682 2.40543,4.476764 -2.47224,-0.334086 -3.00678,-2.338609 3.00678,-5.946747 -4.54358,4.543582 -4.2095,-1.937704 -4.61039,0.334087 c 0,0 -3.4077,-3.140417 -3.20725,-3.0736 0.20047,0.06682 -2.87314,-9.087163 -2.87314,-9.087163 z"
         id="path4935" />
      <path
         style="fill:#39b74e;fill-opacity:1;stroke:#000000;stroke-width:0.565;stroke-miterlimit:4;stroke-dasharray:none;stroke-opacity:1"
         id="path4774-1-3-9"
         d="M 391.24871,14.294752 372.87606,24.902211 354.50341,14.294752 V -6.9201579 l 18.37265,-10.6074601 18.37265,10.6074601 z" />
    </g>
  </g>
</svg>
