<?xml version="1.0" encoding="UTF-8" standalone="no"?>
<svg
   xmlns:dc="http://purl.org/dc/elements/1.1/"
   xmlns:cc="http://creativecommons.org/ns#"
   xmlns:rdf="http://www.w3.org/1999/02/22-rdf-syntax-ns#"
   xmlns:svg="http://www.w3.org/2000/svg"
   xmlns="http://www.w3.org/2000/svg"
   id="svg8077"
   version="1.1"
   viewBox="0 0 68.697166 57.921322"
   height="57.921322mm"
   width="68.697166mm">
  <defs
     id="defs8071" />
  <metadata
     id="metadata8074">
    <rdf:RDF>
      <cc:Work
         rdf:about="">
        <dc:format>image/svg+xml</dc:format>
        <dc:type
           rdf:resource="http://purl.org/dc/dcmitype/StillImage" />
        <dc:title></dc:title>
      </cc:Work>
    </rdf:RDF>
  </metadata>
  <g
     transform="translate(180.24739,-76.783387)"
     id="layer1">
    <g
       transform="translate(-444.1716,16.145206)"
       id="g4843">
      <path
         id="path4768-8"
         d="m 264.86915,70.371063 -0.94494,3.96875 8.59896,5.669643 v 5.197172 l -2.07887,0.377977 -4.25223,-6.331102 -2.07887,1.133929 3.40179,5.008184 -1.03944,5.480655 3.68527,1.889881 3.2128,8.598958 2.55134,-1.417409 -3.02381,-6.425597 6.2366,0.0945 3.77977,-4.157739 10.67782,8.787945 14.45759,-4.724701 6.61459,-12.000744 4.6302,-5.575148 4.44122,1.039434 2.64584,2.740328 6.2366,-1.511905 -8.12648,-6.425595 2.74032,-9.354911 -5.19717,-1.795387 -3.49628,9.543899 -6.89806,-2.929315 -3.49628,0.661458 v 4.819196 l -13.60715,1.984375 -9.35491,4.346726 -11.43378,-7.843006 z"
         style="fill:#9aeea8;fill-opacity:1;stroke:none;stroke-width:0.26458332px;stroke-linecap:butt;stroke-linejoin:miter;stroke-opacity:1" />
      <path
         d="M 327.5595,107.62584 309.18685,118.2333 290.81419,107.62584 V 86.410927 l 18.37266,-10.607456 18.37265,10.607456 z"
         id="path4774-4"
         style="fill:#9aeea8;fill-opacity:1;stroke:#000000;stroke-width:0.565;stroke-miterlimit:4;stroke-dasharray:none;stroke-opacity:1" />
    </g>
  </g>
</svg>
