<?xml version="1.0" encoding="UTF-8" standalone="no"?>
<svg
   xmlns:dc="http://purl.org/dc/elements/1.1/"
   xmlns:cc="http://creativecommons.org/ns#"
   xmlns:rdf="http://www.w3.org/1999/02/22-rdf-syntax-ns#"
   xmlns:svg="http://www.w3.org/2000/svg"
   xmlns="http://www.w3.org/2000/svg"
   id="svg6242"
   version="1.1"
   viewBox="0 0 68.95549 64.846169"
   height="64.846169mm"
   width="68.95549mm">
  <defs
     id="defs6236" />
  <metadata
     id="metadata6239">
    <rdf:RDF>
      <cc:Work
         rdf:about="">
        <dc:format>image/svg+xml</dc:format>
        <dc:type
           rdf:resource="http://purl.org/dc/dcmitype/StillImage" />
        <dc:title></dc:title>
      </cc:Work>
    </rdf:RDF>
  </metadata>
  <g
     transform="translate(8.0194112,-110.36263)"
     id="layer1">
    <path
       id="path5496"
       d="m 29.866128,110.36263 -37.7522092,3.9088 -0.13333,60.93737 46.3713302,-0.13384 -0.40101,-7.75095 -26.05887,-0.13333 4.41006,-4.41006 0.13333,-4.81108 22.183661,-36.081 15.90239,-6.28075 v 13.22968 l 2.271688,-0.40101 0.0336,2.37195 c -3.77518,0.21159 -2.973551,4.33229 -0.701759,4.44365 h 1.937858 c 1.091351,-0.0668 2.282989,-0.36763 2.873211,-2.50578 0,0 -3.453209,1.95756 -4.77748,1.03559 -1.324269,-0.92197 2.338869,-2.57245 2.338869,-2.57245 v -5.1785 l 1.63659,-0.8015 -0.0667,-11.52643 -1.436601,-3.10678 z m 17.17208,1.63659 h 3.808551 l -8.61962,5.54591 z m -4.142898,0.0672 -4.27622,6.68176 -4.543391,-6.6151 z m -14.031701,0.66818 -14.49937,35.74717 -1.80403,7.08277 -0.0667,-19.44429 C 9.1303688,129.7726 3.8292688,121.82178 -3.0083812,116.07548 Z m 2.4722,1.53685 4.811081,5.67924 -8.35246,3.07372 z m 23.921022,1.40302 h 4.075718 v 8.21862 h -4.075718 z m -59.8687023,4.00906 5.01159013,5.27823 -5.01159013,0.2005 z m 39.5557293,3.2737 -5.94641,9.55497 -1.002519,-7.2161 z m -34.48057907,4.11138 -5.01107003,6.01358 -0.13384,-5.94692 z m 1.87119987,1.13584 5.27823,7.48378 H -3.0781111 Z m 23.3220912,0.16537 0.86868,8.01811 -5.54591,4.20957 z m -25.12611097,10.8753 -5.01158013,6.01359 -0.1333301,-5.94692 z m 8.88627977,0 0.13384,5.21157 -4.9444,-5.1449 z m -7.0156,1.13585 5.27875,7.48378 H -3.0109313 Z m 16.7741692,5.29425 1.002011,2.2717 -2.93987,2.33887 z m -18.70892897,5.74642 -5.01158013,6.01359 -0.1333301,-5.94693 z m 8.88678977,0 0.13333,5.21157 -4.9444,-5.14491 z m -7.01611,1.13585 5.27875,7.48378 h -10.69082 z"
       style="fill:#b09d7f;fill-opacity:1;stroke:none;stroke-width:0.26458332px;stroke-linecap:butt;stroke-linejoin:miter;stroke-opacity:1" />
  </g>
</svg>
