<?xml version="1.0" encoding="UTF-8" standalone="no"?>
<svg
   xmlns:dc="http://purl.org/dc/elements/1.1/"
   xmlns:cc="http://creativecommons.org/ns#"
   xmlns:rdf="http://www.w3.org/1999/02/22-rdf-syntax-ns#"
   xmlns:svg="http://www.w3.org/2000/svg"
   xmlns="http://www.w3.org/2000/svg"
   id="svg6313"
   version="1.1"
   viewBox="0 0 68.697166 57.921318"
   height="57.921318mm"
   width="68.697166mm">
  <defs
     id="defs6307" />
  <metadata
     id="metadata6310">
    <rdf:RDF>
      <cc:Work
         rdf:about="">
        <dc:format>image/svg+xml</dc:format>
        <dc:type
           rdf:resource="http://purl.org/dc/dcmitype/StillImage" />
        <dc:title></dc:title>
      </cc:Work>
    </rdf:RDF>
  </metadata>
  <g
     transform="translate(101.62835,-149.35482)"
     id="layer1">
    <g
       transform="translate(-199.99665,158.79901)"
       id="g4778">
      <path
         style="fill:#39b74e;fill-opacity:1;stroke:none;stroke-width:0.26458332px;stroke-linecap:butt;stroke-linejoin:miter;stroke-opacity:1"
         d="M 99.313242,0.28868999 98.368301,4.25744 106.96726,9.9270827 v 5.1971723 l -2.07887,0.377977 -4.25223,-6.3311017 -2.07887,1.1339287 3.40179,5.008184 -1.03944,5.480655 3.68527,1.889881 3.2128,8.598959 2.55134,-1.41741 -3.02381,-6.425597 6.2366,0.0945 3.77977,-4.157739 10.67782,8.787945 14.45759,-4.724701 6.61459,-12.000744 4.6302,-5.5751484 4.44122,1.0394347 2.64584,2.7403274 6.2366,-1.5119048 -8.12648,-6.4255952 2.74032,-9.3549106 -5.19717,-1.795387 -3.49628,9.54389881 -6.89806,-2.92931531 -3.49628,0.6614582 v 4.8191963 l -13.60715,1.984375 -9.35491,4.3467263 -11.43378,-7.843006 z"
         id="path4768" />
      <path
         style="fill:#39b74e;fill-opacity:1;stroke:#000000;stroke-width:0.565;stroke-miterlimit:4;stroke-dasharray:none;stroke-opacity:1"
         id="path4774"
         d="m 162.00359,37.543467 -18.37265,10.607456 -18.37266,-10.607457 0,-21.214912 18.37266,-10.6074561 18.37265,10.6074561 z" />
    </g>
  </g>
</svg>
