<?xml version="1.0" encoding="UTF-8" standalone="no"?>
<svg
   xmlns:dc="http://purl.org/dc/elements/1.1/"
   xmlns:cc="http://creativecommons.org/ns#"
   xmlns:rdf="http://www.w3.org/1999/02/22-rdf-syntax-ns#"
   xmlns:svg="http://www.w3.org/2000/svg"
   xmlns="http://www.w3.org/2000/svg"
   id="svg6937"
   version="1.1"
   viewBox="0 0 69.117401 60.117855"
   height="60.117855mm"
   width="69.117401mm">
  <defs
     id="defs6931" />
  <metadata
     id="metadata6934">
    <rdf:RDF>
      <cc:Work
         rdf:about="">
        <dc:format>image/svg+xml</dc:format>
        <dc:type
           rdf:resource="http://purl.org/dc/dcmitype/StillImage" />
        <dc:title></dc:title>
      </cc:Work>
    </rdf:RDF>
  </metadata>
  <g
     transform="translate(269.65989,6.713689)"
     id="layer1">
    <path
       id="path4703"
       d="m -208.97521,-6.7099125 c -1.39809,0.15526 -3.93215,5.09038 -4.88447,7.79694 -1.61372,-1.30800997 -4.59931,-3.7184999 -5.47874,-3.0737101 -0.87942,0.6447901 0.0314,4.7553703 2.13787,7.4166006 -3.92607,2.07923 -9.84718,5.06886 -15.77113,8.59638 -12.58983,-9.06401 -28.68496,-19.1771605 -32.43575,-16.7953604 -1.9735,1.25319 0.34608,5.4469401 4.60023,10.4055704 -3.44749,2.2308 -3.26686,3.73081 -2.6634,4.32376 0.54216,0.53272 3.03374,-0.25335 5.09014,-1.63504 1.40425,1.48998 2.93094,3.01026 4.53149,4.51135 -2.71841,2.09499 -4.62979,4.31542 -3.47938,5.5454 1.15115,1.23077 4.074,-0.66333 6.64197,-2.68769 1.31056,1.1423 2.64054,2.24981 3.96462,3.299539 -7.52737,-0.881049 -11.98689,3.002531 -10.27586,6.56962 -3.15166,1.435481 -10.31243,4.17368 -12.66227,8.315261 5.20319,7.128521 19.83872,1.798519 32.16705,-5.90455 1.52904,1.31004 3.37674,2.89977 5.43479,4.643639 -2.64161,2.319041 -5.43221,5.60139 -3.96203,6.93085 1.53005,1.383591 5.02362,-0.79829 8.11216,-3.462319 2.4006,1.978729 4.92237,4.00267 7.4471,5.915909 -2.36725,2.13995 -4.43628,5.01959 -3.03858,6.334501 1.46057,1.37405 4.80773,-0.801389 7.691,-2.95434 6.22254,4.303971 11.76782,7.13405 14.18417,5.60017 5.76638,-3.660481 -12.92453,-20.154291 -22.93866,-31.278711 l 13.30925,-11.797209 c 3.4617,1.16091 8.91307,1.98592 9.8888,1.00252 0.97576,-0.98339 -3.84833,-3.608 -6.48124,-5.412071 0.10934,-4.1494295 0.5165,-11.0916495 -0.73484,-12.0943495 -0.11733,-0.094 -0.24966,-0.12872 -0.39429,-0.11266 z"
       style="fill:#8ccd9b;fill-opacity:1;stroke:none;stroke-width:0.26458332px;stroke-linecap:butt;stroke-linejoin:miter;stroke-opacity:1" />
  </g>
</svg>
