<?xml version="1.0" encoding="UTF-8" standalone="no"?>
<svg
   xmlns:dc="http://purl.org/dc/elements/1.1/"
   xmlns:cc="http://creativecommons.org/ns#"
   xmlns:rdf="http://www.w3.org/1999/02/22-rdf-syntax-ns#"
   xmlns:svg="http://www.w3.org/2000/svg"
   xmlns="http://www.w3.org/2000/svg"
   id="svg7901"
   version="1.1"
   viewBox="0 0 71 71"
   height="71mm"
   width="71mm">
  <defs
     id="defs7895" />
  <metadata
     id="metadata7898">
    <rdf:RDF>
      <cc:Work
         rdf:about="">
        <dc:format>image/svg+xml</dc:format>
        <dc:type
           rdf:resource="http://purl.org/dc/dcmitype/StillImage" />
        <dc:title></dc:title>
      </cc:Work>
    </rdf:RDF>
  </metadata>
  <g
     transform="translate(0,-226)"
     id="layer1">
    <path
       id="path4514"
       d="m 31.245191,288.57237 c -9.566256,-0.48959 -18.707354,-0.95518 -20.313556,-1.03469 l -2.920361,-0.14452 0.04763,-2.18492 c 0.02625,-1.2017 0.06994,-6.05665 0.09712,-10.7888 l 0.04948,-8.60389 7.087067,-5.10464 c 6.597894,-4.75231 7.084132,-5.11832 7.044526,-5.30275 -0.0234,-0.10895 -1.928465,-4.99411 -4.233482,-10.85589 l -4.190932,-10.65779 1.316735,-0.0614 c 2.688445,-0.12534 11.065035,-0.35679 11.113664,-0.30709 0.02767,0.0283 1.495023,4.02083 3.260687,8.87222 1.765673,4.85139 3.22696,8.83736 3.247312,8.85771 0.02038,0.0204 2.689369,0.28535 5.931155,0.58889 6.870933,0.64336 7.54412,0.70983 7.583033,0.74873 0.01593,0.0159 0.255386,0.89129 0.532029,1.94515 0.276654,1.05386 0.521131,1.93424 0.543288,1.9564 0.02214,0.0221 1.655736,-0.0717 3.63017,-0.20853 1.974435,-0.13685 3.719066,-0.25676 3.876945,-0.26646 l 0.28706,-0.0176 3.694758,4.9887 3.694747,4.98871 0.0042,0.79581 c 0.0024,0.43772 0.08446,3.63001 0.182322,7.09399 l 0.177938,6.29817 -0.202139,0.17275 c -0.11117,0.095 -1.501672,1.27568 -3.089995,2.6237 l -2.887877,2.45095 -2.565519,0.18614 c -1.411039,0.10237 -2.610919,0.22387 -2.666399,0.26997 -0.05551,0.0461 -0.418439,0.87713 -0.806572,1.84668 l -0.705699,1.76283 -0.713166,-0.009 c -0.392234,-0.005 -8.540094,-0.40974 -18.106357,-0.89932 z"
       style="fill:#66cc77;fill-opacity:1;stroke:none;stroke-width:0.07924008" />
  </g>
</svg>
