<?xml version="1.0" encoding="UTF-8" standalone="no"?>
<svg
   xmlns:dc="http://purl.org/dc/elements/1.1/"
   xmlns:cc="http://creativecommons.org/ns#"
   xmlns:rdf="http://www.w3.org/1999/02/22-rdf-syntax-ns#"
   xmlns:svg="http://www.w3.org/2000/svg"
   xmlns="http://www.w3.org/2000/svg"
   id="svg5688"
   version="1.1"
   viewBox="0 0 65.560768 66.734589"
   height="66.734589mm"
   width="65.560768mm">
  <defs
     id="defs5682" />
  <metadata
     id="metadata5685">
    <rdf:RDF>
      <cc:Work
         rdf:about="">
        <dc:format>image/svg+xml</dc:format>
        <dc:type
           rdf:resource="http://purl.org/dc/dcmitype/StillImage" />
        <dc:title></dc:title>
      </cc:Work>
    </rdf:RDF>
  </metadata>
  <g
     transform="translate(-20.136282,-110.17438)"
     id="layer1">
    <path
       id="path4514"
       d="m 47.842803,175.82554 c -11.407791,-0.58383 -22.308581,-1.13906 -24.223981,-1.23386 l -3.48254,-0.17236 0.0568,-2.60551 c 0.0313,-1.43303 0.0834,-7.22259 0.11581,-12.86568 l 0.059,-10.26018 8.451349,-6.0873 c 7.868011,-5.66713 8.447851,-6.1036 8.400621,-6.32353 -0.0279,-0.12993 -2.2997,-5.95549 -5.04844,-12.94569 l -4.997701,-12.70944 1.57021,-0.0732 c 3.205981,-0.14947 13.195091,-0.42547 13.253081,-0.3662 0.033,0.0338 1.78282,4.79485 3.88838,10.58014 2.10557,5.7853 3.848161,10.53858 3.872431,10.56285 0.02429,0.0243 3.207078,0.34028 7.072918,0.70226 8.193612,0.7672 8.996392,0.84647 9.042792,0.89286 0.019,0.019 0.304548,1.06287 0.634449,2.3196 0.329909,1.25673 0.621451,2.30659 0.64787,2.33301 0.0264,0.0264 1.974469,-0.0855 4.328991,-0.24867 2.354519,-0.1632 4.434998,-0.30619 4.623268,-0.31776 l 0.34232,-0.021 4.406011,5.94904 4.406001,5.94904 0.005,0.94902 c 0.003,0.52197 0.100718,4.32879 0.217418,8.45961 l 0.212191,7.51059 -0.241052,0.206 c -0.132569,0.1133 -1.79075,1.52125 -3.684828,3.12877 l -3.443801,2.92277 -3.05939,0.22196 c -1.682671,0.12207 -3.113529,0.26696 -3.179691,0.32195 -0.0662,0.055 -0.498988,1.04598 -0.96184,2.20217 l -0.841549,2.10217 -0.850451,-0.0109 c -0.467738,-0.006 -10.18409,-0.48861 -21.591889,-1.07244 z"
       style="fill:#66cc77;fill-opacity:1;stroke:none;stroke-width:0.09449405" />
  </g>
</svg>
