<?xml version="1.0" encoding="UTF-8" standalone="no"?>
<svg
   xmlns:dc="http://purl.org/dc/elements/1.1/"
   xmlns:cc="http://creativecommons.org/ns#"
   xmlns:rdf="http://www.w3.org/1999/02/22-rdf-syntax-ns#"
   xmlns:svg="http://www.w3.org/2000/svg"
   xmlns="http://www.w3.org/2000/svg"
   id="svg8649"
   version="1.1"
   viewBox="0 0 69.117386 63.510983"
   height="63.510983mm"
   width="69.117386mm">
  <defs
     id="defs8643" />
  <metadata
     id="metadata8646">
    <rdf:RDF>
      <cc:Work
         rdf:about="">
        <dc:format>image/svg+xml</dc:format>
        <dc:type
           rdf:resource="http://purl.org/dc/dcmitype/StillImage" />
        <dc:title></dc:title>
      </cc:Work>
    </rdf:RDF>
  </metadata>
  <g
     transform="translate(281.75512,-241.80998)"
     id="layer1">
    <g
       transform="translate(-474.6428,187.88272)"
       id="g4898">
      <path
         id="path4703-3"
         d="m 253.57235,53.931038 c -1.39808,0.15526 -3.93215,5.09038 -4.88447,7.79694 -1.61372,-1.30801 -4.5993,-3.7185 -5.47873,-3.07372 -0.87942,0.6448 0.0314,4.75538 2.13786,7.41661 -3.92607,2.07923 -9.84718,5.06886 -15.77112,8.59638 -12.58983,-9.06401 -28.68496,-19.17716 -32.43575,-16.79536 -1.9735,1.25319 0.34608,5.44694 4.60023,10.40557 -3.44749,2.2308 -3.26686,3.73081 -2.6634,4.32376 0.54216,0.53272 3.03374,-0.25335 5.09014,-1.63504 1.40425,1.48998 2.93094,3.01026 4.53149,4.51135 -2.71841,2.09499 -4.62979,4.31542 -3.47938,5.5454 1.15115,1.23077 4.074,-0.66333 6.64197,-2.68769 1.31056,1.1423 2.64054,2.24981 3.96462,3.29953 -7.52737,-0.88104 -11.98689,3.00254 -10.27586,6.56962 -3.15166,1.43549 -10.31243,4.17368 -12.66227,8.31527 5.20319,7.128522 19.83872,1.79851 32.16704,-5.90455 1.52905,1.31004 3.37674,2.89977 5.4348,4.64363 -2.64162,2.31905 -5.43221,5.601392 -3.96203,6.930852 1.53004,1.3836 5.02362,-0.79829 8.11215,-3.462312 2.4006,1.978722 4.92237,4.002672 7.4471,5.915902 -2.36725,2.13995 -4.43627,5.01959 -3.03858,6.33451 1.46058,1.37405 4.80774,-0.80139 7.69101,-2.95434 6.22253,4.30397 11.76782,7.13405 14.18416,5.60017 5.76638,-3.66049 -12.92453,-20.154302 -22.93866,-31.278722 l 13.30925,-11.7972 c 3.4617,1.16091 8.91307,1.98592 9.8888,1.00252 0.97576,-0.98339 -3.84833,-3.608 -6.48123,-5.41208 0.10933,-4.14942 0.51649,-11.09164 -0.73485,-12.09434 -0.11732,-0.094 -0.24966,-0.12872 -0.39429,-0.11266 z"
         style="fill:#39b74e;fill-opacity:1;stroke:none;stroke-width:0.26458332px;stroke-linecap:butt;stroke-linejoin:miter;stroke-opacity:1" />
      <path
         style="fill:#5b71d2;fill-opacity:1;stroke:#000000;stroke-width:0.565;stroke-miterlimit:4;stroke-dasharray:none;stroke-opacity:1"
         id="path4774-1-3-8"
         d="M 259.53385,106.50458 241.1612,117.11204 222.78855,106.50458 V 85.28967 l 18.37265,-10.60746 18.37265,10.60746 z" />
    </g>
  </g>
</svg>
