<?xml version="1.0" encoding="UTF-8" standalone="no"?>
<svg
   xmlns:dc="http://purl.org/dc/elements/1.1/"
   xmlns:cc="http://creativecommons.org/ns#"
   xmlns:rdf="http://www.w3.org/1999/02/22-rdf-syntax-ns#"
   xmlns:svg="http://www.w3.org/2000/svg"
   xmlns="http://www.w3.org/2000/svg"
   id="svg6196"
   version="1.1"
   viewBox="0 0 68.413712 38.089104"
   height="38.089104mm"
   width="68.413712mm">
  <defs
     id="defs6190" />
  <metadata
     id="metadata6193">
    <rdf:RDF>
      <cc:Work
         rdf:about="">
        <dc:format>image/svg+xml</dc:format>
        <dc:type
           rdf:resource="http://purl.org/dc/dcmitype/StillImage" />
        <dc:title></dc:title>
      </cc:Work>
    </rdf:RDF>
  </metadata>
  <g
     transform="translate(39.498523,-79.139971)"
     id="layer1">
    <path
       id="path4685"
       d="m -26.080363,91.896661 -5.008189,4.53572 6.992559,5.669639 -15.40253,1.22842 10.96131,5.66965 c 0,0 13.52796,0.58176 22.3950893,-6.80357 l 6.04762103,2.92931 c 0,0 -10.52582933,4.51936 -27.78125033,7.46503 l 0.0945,4.63021 c 0,0 17.31143,0.65654 38.0811,-9.92188 l 16.53646,7.46503 2.078882,-5.66964 c 0,0 -20.3167717,-9.587849 -27.4977727,-13.418149 l 12.7566997,-3.40179 6.89805,2.74033 2.929311,-2.83482 -6.614581,-5.29167 -1.133927,-7.74851 -4.91368,3.77976 -0.0945,4.8192 -8.4099687,1.88988 -7.654001,-2.45685 -12.0007503,2.55134 -8.59896,-4.63021 -4.6302,3.02381 3.96875,1.32292 z"
       style="fill:#96faa0;fill-opacity:1;stroke:none;stroke-width:0.26458332px;stroke-linecap:butt;stroke-linejoin:miter;stroke-opacity:1" />
  </g>
</svg>
