<?xml version="1.0" encoding="UTF-8" standalone="no"?>
<svg
   xmlns:dc="http://purl.org/dc/elements/1.1/"
   xmlns:cc="http://creativecommons.org/ns#"
   xmlns:rdf="http://www.w3.org/1999/02/22-rdf-syntax-ns#"
   xmlns:svg="http://www.w3.org/2000/svg"
   xmlns="http://www.w3.org/2000/svg"
   id="svg6265"
   version="1.1"
   viewBox="0 0 68.41391 67.592323"
   height="67.592323mm"
   width="68.41391mm">
  <defs
     id="defs6259" />
  <metadata
     id="metadata6262">
    <rdf:RDF>
      <cc:Work
         rdf:about="">
        <dc:format>image/svg+xml</dc:format>
        <dc:type
           rdf:resource="http://purl.org/dc/dcmitype/StillImage" />
        <dc:title></dc:title>
      </cc:Work>
    </rdf:RDF>
  </metadata>
  <g
     transform="translate(-61.798997,-195.16814)"
     id="layer1">
    <path
       id="path5447"
       d="m 78.193857,195.16845 c -1.39177,0.0197 -4.87431,2.48076 -3.30729,5.17384 1.36229,-2.38598 3.88191,-3.07128 6.33088,-0.11834 l -0.15141,9.54877 -2.73058,0.0894 1.32291,-1.79524 c -3.44116,1.49616 -6.55144,4.07885 -4.44107,5.76399 l 2.4567,-2.4567 h 3.77961 l -2.26756,4.72478 0.22789,27.13065 -17.61494,-2.0898 c 15.33953,31.84449 58.271553,26.64725 68.413913,-3.40186 l -21.99814,-3.85454 0.0755,-17.68988 -1.32292,-2.4567 1.13378,-13.98519 -1.51205,-1.32292 -1.41697,16.63103 0.0486,5.99498 -3.44786,-1.86758 1.69809,-21.23127 c -0.0866,-1.00794 -1.70877,-2.20463 -3.30729,-1.03921 l 0.10645,22.08548 -3.535703,0.0661 1.996778,-22.02811 c -0.006,-0.70901 -1.051278,-1.85517 -3.207037,-1.73737 l 0.061,9.38341 -1.46916,-1.43867 h -1.70067 l -4.819351,1.74821 -1.93735,-0.18862 -0.047,6.61459 -1.50637,-1.0511 -0.006,-0.69712 -1.495001,0.0491 1.707911,-9.75857 c 3.05531,0.008 4.433059,-0.69311 4.913389,-3.1657 l -6.425439,-0.047 c -1.23029,1.993 -2.49492,1.19915 -3.11816,0.28371 -0.62324,-0.91544 -0.0965,-1.88628 -1.48828,-1.86656 z m 10.819499,11.48095 0.0357,1.55908 c 0,0 1.641502,1.45296 1.6769,1.50016 0.0354,0.0472 -3.082489,0 -3.082489,0 l -0.0238,-1.72444 z m 5.055502,1.41748 1.538928,0.12092 0.0703,10.90064 -3.520201,0.0661 -1.585429,-4.7563 0.18913,-2.97656 z m -6.378421,3.1657 0.047,1.84278 h 1.46503 l -1.70118,3.21273 0.009,3.05614 -3.34915,-1.96318 -0.0357,-4.45762 z m 6.330881,9.49658 1.67948,1.85157 0.031,4.80022 -3.379118,-0.0258 0.01029,-5.25859 z m -8.268231,0.1416 1.76733,1.86396 0.009,3.19154 -3.28766,1.61799 -0.0388,-4.8488 z m 12.80801,1.8898 h 1.727023 l 0.03,6.14123 -1.829343,-1.85467 z m 4.909773,0 h 1.76372 l 0.0512,6.30918 -1.81488,0.0393 z m -19.217433,6.18774 3.28921,1.42472 0.006,2.07326 -0.89762,5.10304 1.15083,6.67557 -3.42976,-0.4067 z m 11.499039,1.59577 0.0227,3.49849 -0.714171,0.0104 0.18293,10.68358 -2.923328,-1.09244 0.0258,-13.01574 z m 4.573884,0.0982 0.0155,3.26337 -3.147621,-1.78646 1.418,-1.418 z m 3.14451,0.20619 1.84433,1.87379 0.01,1.18184 -1.85415,0.0269 z"
       style="fill:#9fbce3;fill-opacity:1;stroke:none;stroke-width:0.26458332px;stroke-linecap:butt;stroke-linejoin:miter;stroke-opacity:1" />
  </g>
</svg>
