<?xml version="1.0" encoding="UTF-8" standalone="no"?>
<svg
   xmlns:dc="http://purl.org/dc/elements/1.1/"
   xmlns:cc="http://creativecommons.org/ns#"
   xmlns:rdf="http://www.w3.org/1999/02/22-rdf-syntax-ns#"
   xmlns:svg="http://www.w3.org/2000/svg"
   xmlns="http://www.w3.org/2000/svg"
   id="svg5783"
   version="1.1"
   viewBox="0 0 52.916664 68.602676"
   height="68.602676mm"
   width="52.916664mm">
  <defs
     id="defs5777" />
  <metadata
     id="metadata5780">
    <rdf:RDF>
      <cc:Work
         rdf:about="">
        <dc:format>image/svg+xml</dc:format>
        <dc:type
           rdf:resource="http://purl.org/dc/dcmitype/StillImage" />
        <dc:title></dc:title>
      </cc:Work>
    </rdf:RDF>
  </metadata>
  <g
     transform="translate(43.089286,-91.097471)"
     id="layer1">
    <g
       style="fill:#bfdd9a;fill-opacity:1"
       transform="translate(-331.86309,58.96429)"
       id="g4677">
      <path
         style="fill:#bfdd9a;fill-opacity:1;stroke:none;stroke-width:0.26458332px;stroke-linecap:butt;stroke-linejoin:miter;stroke-opacity:1"
         d="m 303.56308,59.262533 c -2.47304,0.05826 -3.80841,2.223005 -3.1042,4.431771 l 14.77325,33.787082 14.77327,-33.787082 c 0.70419,-2.208768 -0.63119,-4.373512 -3.10422,-4.431771 -0.0798,-0.0019 -0.16076,-0.0016 -0.24286,0.0011 h -22.85235 c -0.0821,-0.0026 -0.16312,-0.0029 -0.24289,-0.0011 z"
         id="path4630" />
      <circle
         style="fill:#bfdd9a;fill-opacity:1;stroke:none;stroke-width:0.26499999;stroke-linecap:round;stroke-linejoin:round;stroke-miterlimit:4;stroke-dasharray:none;stroke-opacity:1"
         id="path4670"
         cx="315.23215"
         cy="43.992184"
         r="11.859003" />
      <rect
         style="fill:#bfdd9a;fill-opacity:1;stroke:none;stroke-width:0.26499999;stroke-linecap:round;stroke-linejoin:round;stroke-miterlimit:4;stroke-dasharray:none;stroke-opacity:1"
         id="rect4672"
         width="52.916664"
         height="3.4962797"
         x="288.7738"
         y="97.239578" />
    </g>
    <g
       id="g6346"
       transform="translate(-331.86309,58.96429)"
       style="fill:#bfdd9a;fill-opacity:1">
      <path
         id="path6340"
         d="m 303.56308,59.262533 c -2.47304,0.05826 -3.80841,2.223005 -3.1042,4.431771 l 14.77325,33.787082 14.77327,-33.787082 c 0.70419,-2.208768 -0.63119,-4.373512 -3.10422,-4.431771 -0.0798,-0.0019 -0.16076,-0.0016 -0.24286,0.0011 h -22.85235 c -0.0821,-0.0026 -0.16312,-0.0029 -0.24289,-0.0011 z"
         style="fill:#bfdd9a;fill-opacity:1;stroke:none;stroke-width:0.26458332px;stroke-linecap:butt;stroke-linejoin:miter;stroke-opacity:1" />
      <circle
         r="11.859003"
         cy="43.992184"
         cx="315.23215"
         id="circle6342"
         style="fill:#bfdd9a;fill-opacity:1;stroke:none;stroke-width:0.26499999;stroke-linecap:round;stroke-linejoin:round;stroke-miterlimit:4;stroke-dasharray:none;stroke-opacity:1" />
      <rect
         y="97.239578"
         x="288.7738"
         height="3.4962797"
         width="52.916664"
         id="rect6344"
         style="fill:#bfdd9a;fill-opacity:1;stroke:none;stroke-width:0.26499999;stroke-linecap:round;stroke-linejoin:round;stroke-miterlimit:4;stroke-dasharray:none;stroke-opacity:1" />
    </g>
    <g
       style="fill:#bfdd9a;fill-opacity:1"
       transform="translate(-331.86309,58.96429)"
       id="g6354">
      <path
         style="fill:#bfdd9a;fill-opacity:1;stroke:none;stroke-width:0.26458332px;stroke-linecap:butt;stroke-linejoin:miter;stroke-opacity:1"
         d="m 303.56308,59.262533 c -2.47304,0.05826 -3.80841,2.223005 -3.1042,4.431771 l 14.77325,33.787082 14.77327,-33.787082 c 0.70419,-2.208768 -0.63119,-4.373512 -3.10422,-4.431771 -0.0798,-0.0019 -0.16076,-0.0016 -0.24286,0.0011 h -22.85235 c -0.0821,-0.0026 -0.16312,-0.0029 -0.24289,-0.0011 z"
         id="path6348" />
      <circle
         style="fill:#bfdd9a;fill-opacity:1;stroke:none;stroke-width:0.26499999;stroke-linecap:round;stroke-linejoin:round;stroke-miterlimit:4;stroke-dasharray:none;stroke-opacity:1"
         id="circle6350"
         cx="315.23215"
         cy="43.992184"
         r="11.859003" />
      <rect
         style="fill:#bfdd9a;fill-opacity:1;stroke:none;stroke-width:0.26499999;stroke-linecap:round;stroke-linejoin:round;stroke-miterlimit:4;stroke-dasharray:none;stroke-opacity:1"
         id="rect6352"
         width="52.916664"
         height="3.4962797"
         x="288.7738"
         y="97.239578" />
    </g>
  </g>
</svg>
