<?xml version="1.0" encoding="UTF-8" standalone="no"?>
<svg
   xmlns:dc="http://purl.org/dc/elements/1.1/"
   xmlns:cc="http://creativecommons.org/ns#"
   xmlns:rdf="http://www.w3.org/1999/02/22-rdf-syntax-ns#"
   xmlns:svg="http://www.w3.org/2000/svg"
   xmlns="http://www.w3.org/2000/svg"
   id="svg6398"
   version="1.1"
   viewBox="0 0 68.697166 57.921314"
   height="57.921314mm"
   width="68.697166mm">
  <defs
     id="defs6392" />
  <metadata
     id="metadata6395">
    <rdf:RDF>
      <cc:Work
         rdf:about="">
        <dc:format>image/svg+xml</dc:format>
        <dc:type
           rdf:resource="http://purl.org/dc/dcmitype/StillImage" />
        <dc:title></dc:title>
      </cc:Work>
    </rdf:RDF>
  </metadata>
  <g
     transform="translate(-102.4788,-214.36672)"
     id="layer1">
    <g
       id="g6379"
       transform="translate(-225.5901,-104.98837)">
      <path
         style="fill:#39b74e;fill-opacity:1;stroke:none;stroke-width:0.26458332px;stroke-linecap:butt;stroke-linejoin:miter;stroke-opacity:1"
         d="m 329.01384,329.08797 -0.94494,3.96875 8.59896,5.66964 v 5.19717 l -2.07887,0.37798 -4.25223,-6.3311 -2.07887,1.13393 3.40179,5.00818 -1.03944,5.48066 3.68527,1.88988 3.2128,8.59896 2.55134,-1.41741 -3.02381,-6.4256 6.2366,0.0945 3.77977,-4.15774 10.67782,8.78795 14.45759,-4.7247 6.61459,-12.00075 4.6302,-5.57515 4.44122,1.03944 2.64584,2.74033 6.2366,-1.51191 -8.12648,-6.42559 2.74032,-9.35491 -5.19717,-1.79539 -3.49628,9.5439 -6.89806,-2.92932 -3.49628,0.66146 v 4.8192 l -13.60715,1.98437 -9.35491,4.34673 -11.43378,-7.84301 z"
         id="path4768-7-3" />
      <path
         style="fill:#62b5f5;fill-opacity:1;stroke:#000000;stroke-width:0.565;stroke-miterlimit:4;stroke-dasharray:none;stroke-opacity:1"
         id="path4774-8-9"
         d="m 391.70417,366.34275 -18.37266,10.60745 -18.37265,-10.60745 0,-21.21492 18.37265,-10.60745 18.37266,10.60745 z" />
    </g>
  </g>
</svg>
