<?xml version="1.0" encoding="UTF-8" standalone="no"?>
<svg
   xmlns:dc="http://purl.org/dc/elements/1.1/"
   xmlns:cc="http://creativecommons.org/ns#"
   xmlns:rdf="http://www.w3.org/1999/02/22-rdf-syntax-ns#"
   xmlns:svg="http://www.w3.org/2000/svg"
   xmlns="http://www.w3.org/2000/svg"
   id="svg4753"
   version="1.1"
   viewBox="0 0 67.573662 48.023178"
   height="48.023178mm"
   width="67.573662mm">
  <defs
     id="defs4747" />
  <metadata
     id="metadata4750">
    <rdf:RDF>
      <cc:Work
         rdf:about="">
        <dc:format>image/svg+xml</dc:format>
        <dc:type
           rdf:resource="http://purl.org/dc/dcmitype/StillImage" />
        <dc:title></dc:title>
      </cc:Work>
    </rdf:RDF>
  </metadata>
  <g
     transform="translate(94.26302,-84.75627)"
     id="layer1">
    <g
       transform="translate(-622.98918,-255.98487)"
       id="g4733">
      <path
         style="fill:#5887ab;fill-opacity:1;stroke:none;stroke-width:0.27908573;stroke-linecap:round;stroke-linejoin:round;stroke-miterlimit:4;stroke-dasharray:none;stroke-opacity:1"
         d="m 589.70592,340.74119 v 4.10001 h -2.34042 l -1.59578,-3.16415 h -52.96784 v 0.0527 a 4.6438079,4.7570715 0 0 0 -4.07572,4.71496 4.6438079,4.7570715 0 0 0 4.07572,4.71754 v 0.0506 h 52.96784 l 1.68828,-3.16466 h 2.24792 v 4.10001 h 2.98845 v -4.10001 h 2.26909 l 1.33636,-1.60353 -1.33636,-1.60351 h -2.26909 v -4.10001 z"
         id="rect4680" />
      <path
         style="fill:#5887ab;fill-opacity:1;stroke:none;stroke-width:0.27908573;stroke-linecap:round;stroke-linejoin:round;stroke-miterlimit:4;stroke-dasharray:none;stroke-opacity:1"
         d="m 589.70592,359.04925 v 4.10001 h -2.34042 l -1.59578,-3.16415 h -52.96784 v 0.0527 a 4.6438079,4.7570715 0 0 0 -4.07572,4.71496 4.6438079,4.7570715 0 0 0 4.07572,4.71754 v 0.0506 h 52.96784 l 1.68828,-3.16466 h 2.24792 v 4.10001 h 2.98845 v -4.10001 h 2.26909 l 1.33636,-1.60353 -1.33636,-1.60351 h -2.26909 v -4.10001 z"
         id="rect4680-9" />
      <path
         style="fill:#5887ab;fill-opacity:1;stroke:none;stroke-width:0.27908573;stroke-linecap:round;stroke-linejoin:round;stroke-miterlimit:4;stroke-dasharray:none;stroke-opacity:1"
         d="m 589.70592,377.35731 v 4.10001 h -2.34042 l -1.59578,-3.16415 h -52.96784 v 0.0527 a 4.6438079,4.7570715 0 0 0 -4.07572,4.71496 4.6438079,4.7570715 0 0 0 4.07572,4.71754 v 0.0506 h 52.96784 l 1.68828,-3.16466 h 2.24792 v 4.10001 h 2.98845 v -4.10001 h 2.26909 l 1.33636,-1.60353 -1.33636,-1.60351 h -2.26909 v -4.10001 z"
         id="rect4680-6" />
    </g>
  </g>
</svg>
